<svg id="visual" viewBox="0 0 1920 1080" width="1920" height="1080" xmlns="http://www.w3.org/2000/svg" xmlns:xlink="http://www.w3.org/1999/xlink" version="1.1"><rect x="0" y="0" width="1920" height="1080" fill="#161616"></rect><defs><linearGradient id="grad1_0" x1="43.8%" y1="0%" x2="100%" y2="100%"><stop offset="14.444444444444446%" stop-color="#161616" stop-opacity="1"></stop><stop offset="85.55555555555554%" stop-color="#161616" stop-opacity="1"></stop></linearGradient></defs><defs><linearGradient id="grad2_0" x1="0%" y1="0%" x2="56.3%" y2="100%"><stop offset="14.444444444444446%" stop-color="#161616" stop-opacity="1"></stop><stop offset="85.55555555555554%" stop-color="#161616" stop-opacity="1"></stop></linearGradient></defs><g transform="translate(1920, 0)"><path d="M0 864C-199.7 869.5 -399.4 874.9 -432 748.2C-464.6 621.6 -330 362.7 -374.1 216C-418.3 69.3 -641.1 34.6 -864 0L0 0Z" fill="#fd4556"></path></g><g transform="translate(0, 1080)"><path d="M0 -864C189.7 -863.7 379.3 -863.3 432 -748.2C484.7 -633.2 400.3 -403.3 449.5 -259.5C498.6 -115.7 681.3 -57.8 864 0L0 0Z" fill="#fd4556"></path></g></svg>